<svg xmlns="http://www.w3.org/2000/svg">
  <symbol id="icon" viewBox="0 0 24 24">
    <path transform="translate(12 12) rotate(90) scale(0.0465) translate(-172 -172)" d="M254.37 22.255c-1.161-.642-2.53-.795-3.803-.428-1.274.367-2.35 1.226-2.992 2.387l-21.758 39.391c-1.335 2.417-.458 5.459 1.96 6.794C264.616 90.748 287.5 129.495 287.5 171.52c0 63.649-51.782 115.431-115.431 115.431S56.638 235.169 56.638 171.52c0-23.888 7.557-47.427 21.382-66.897l34.478 34.478c1.338 1.337 3.315 1.806 5.109 1.21 1.795-.596 3.101-2.152 3.374-4.024L139.963 6.271c.228-1.563-.295-3.141-1.412-4.258-1.117-1.117-2.7-1.639-4.258-1.412L4.278 19.584c-1.872.273-3.428 1.579-4.023 3.374-.596 1.795-.127 3.772 1.21 5.109l37.292 37.292C14.788 95.484 1.638 133 1.638 171.52c0 93.976 76.455 170.431 170.431 170.431 93.976 0 170.431-76.455 170.431-170.431C342.5 109.478 308.731 52.283 254.37 22.255z" fill="currentColor"/>
  </symbol>
</svg>
