<svg xmlns="http://www.w3.org/2000/svg">
  <symbol id="icon" viewBox="0 0 820 700">
    <path d="M224.4,228.3h139.4s46.9-39.4,46.9-39.4c-34.1-18.4-73.4-29.1-115.9-29.1s-81.6,10.6-117.2,29.7l46.9,39.4v-.6h0ZM419.4,480.8c0,30.3,24.7,55,55,55s31.6,13.8,31.6,31.6v14.1h0c.6,29.7,24.7,53.1,54.4,53.1,29.7,0,53.8-23.4,54.4-53.1h0v-14.1c0-77.2-63.4-140.6-140.6-140.6-30.3,0-54.7,23.7-54.7,54.1ZM55.3,479.5v102.2h0c1.2,29.1,24.7,52.5,54.4,52.5s53.1-23.4,54.4-52.5h0v-101.3c0-30.3-24.7-55-55-55-29.7,0-54.4,24.1-53.7,54.1ZM27.2,496.7v-17.2c0-20.6,7.5-39.7,20.3-55-9.4,0-17.2-3.1-24.1-8.1-6.3,10.9-10.6,24.1-10.6,37.5,0,15.9,4.4,30.9,14.4,42.8ZM411.2,427h-239.1c12.2,13.8,19.7,32.8,19.7,53.1v50c33.1,6.9,66.6,10.6,102.2,10.6,38.1,0,75.3-4.7,111.6-12.8-9.1-13.4-14.7-29.1-14.7-46.9s8.4-39.4,20.3-54.1ZM411.9,426.7s-.6.6,0,.6h0v-.6ZM49.1,398.3h493.1c7.8,0,14.1-6.6,14.1-14.1s-6.6-14.1-14.1-14.1h-3.7c-10.3-67.8-49.1-125.9-102.2-164.1l-57.8,48.8c30,34.1,50,73.4,62.2,115.3h-29.7c-14.1-41.3-35.6-79.4-67.2-112.2h-102.8c-31.6,32.2-53.7,71.6-67.2,112.2h-29.7c12.2-43.1,33.1-82.8,63.4-118.4l-55-46.2c-54.1,37.2-91.6,96.2-102.2,164.1h-1.9c-7.8,0-14.1,7.2-14.1,14.7s6.2,14.1,14.7,14.1ZM627.8,497.7c28.4-20.9,48.1-50,55-85.6h76.6c15,0,27.8-12.5,27.8-27.8v-27.8c0-59.1-47.5-105.9-105.9-105.9-59.1,0-105.9,47.5-105.9,105.9v27.8c0,16.3-12.5,29.1-27.8,30.9,35.6,17.8,64.1,46.3,80.3,82.5ZM709.1,318.9c0-10.3,7.5-17.8,17.8-17.8s17.8,8.4,17.8,17.8c0,10.3-8.4,17.8-17.8,17.8s-17.5-7.8-17.8-17.8Z" fill="currentColor"/>
  </symbol>
</svg>
