<svg xmlns="http://www.w3.org/2000/svg">
  <symbol id="icon" viewBox="0 0 820 700">
    <path d="M347.5,55.6c-6.5,0-7.5,1.1-8.7,4.8-1.3,3.7-1.1,13.1,6.4,26.7,13.7,25,50.6,62.1,122.9,100.9,11.2-11.7,24.4-20.2,38.4-26.1-39.8-22-68.8-46.2-92-65.9-29.6-25.1-48.9-40.4-66.9-40.4h0ZM244,141c-6,0-7.3,1.3-7.9,2.1-.6.8-1.6,2.9-.8,8,1.6,10.1,11.2,28.1,28.1,45.2,33.9,34.1,95,66.1,171.2,54.3,3.3-.5,7.4-1,12.3,1.9,4.9,2.8,7.4,9.3,7.5,13.1.1,7.5-2.3,10.7-4.3,14.9-3.8,8.4-6.8,18.2-6.8,17.9h0c3.1,23.4,22.5,41.1,50.6,54.1,28.2,13.1,63.7,20.3,92,23,19.6,1.9,42.5,1.6,63.9-2.2-2.4-4.2-4.2-8.7-5.2-13.3-2.8-12.7.2-25.6,6.4-36.4,10-17.4,28.3-30.8,50.6-35.7-7.3-12.2-16.3-25.5-26.6-38.4-31.1-39.1-74.1-73.4-106.2-74-32-.7-68.9,9.5-89.6,37.9-3.5,4.8-8.7,6.5-12.5,7-3.8.5-7.2.2-10.8-.4-7.2-1.2-15.2-3.7-24.4-7.1-18.5-6.7-41.6-17-65.8-27.8-24.2-10.8-49.5-22-71.5-30.4-22-8.4-41.5-13.6-50-13.6h0ZM594.6,237.7c13.5.4,24.3,11.5,24.3,25,0,13.8-11.2,25-25,25s-25-11.2-25-25c0-13.8,11.2-25,25-25,.2,0,.5,0,.7,0h0ZM714.9,314.2c-18.2,1.8-33.3,12.3-39.6,23.3-3.4,5.9-4.4,11.5-3.3,16.5.8,3.7,2.7,7.5,6.9,11.4,18.5-7.1,33.1-17.8,40.9-32.7-.4.7.3-2.1-.8-6.5-.8-3.2-2.2-7.4-4.1-12h0ZM189.9,383.8c-61.7,31-101.7,87.4-105.9,139.4s-2,87.1,10.9,127.6c20.9,42,27.4,60.8,89.8,98.1h272c-.2-3-1-5.6-2.3-8.1-2.6-5-7.7-10.2-15.7-15.1-16-9.8-42.4-17.3-70-22.6-27.6-5.3-56.5-8.7-79.1-12.5-11.3-1.9-20.9-3.7-29-6.4-4-1.4-7.7-2.8-11.4-5.6-3.7-2.8-8.3-8.4-8.3-15.6s2-7.8,3.7-9.7c1.7-1.9,3.2-2.7,4.3-3.3,2.3-1.2,3.6-1.5,4.9-1.8,2.6-.6,5.1-.9,8-1.3,5.9-.6,13.6-1.2,23-1.9,18.8-1.4,43.9-3.3,70.3-7.3,52.7-8.1,108.4-26.2,126.8-56.9,10-16.7,8.9-32.3-.9-48.7-9.8-16.4-29.4-32.4-55.8-42.8-50.5-19.9-124.6-19.5-197.5,28.3-5.6,3.7-13,2.3-16.9-3.1h0c-5.2-7.3-3.2-17.4,4.3-22.2,47.9-30.7,96.9-43.4,141.2-43.6,29.1-.1,56.1,5.2,79.3,14.4,31,12.2,55.7,31.1,69.7,54.5,14,23.4,15.9,52.4.9,77.5-27.6,46-91.4,61.8-146.7,70.3-9.2,1.4-17.7,2.3-26.3,3.3,13.2,2,27.1,4.1,41,6.7,29,5.6,57.6,12.9,79.4,26.2,10.9,6.7,20.3,15.1,26,26.3,3.2,6.3,5,13.4,5.3,20.9h204.2c3.2-2.8,5.4-5.1,6-6.3.8-1.7.7-1.8.4-3.2-.7-2.8-5.7-9.6-12.2-17.4-3.9-4.8-17.2-12.4-33.8-16.6-16.6-4.2-36.5-5.7-53.5-3.5l-3.7.4-3.5-1.4c-10.4-4.2-18.5-15.1-19.1-25.5-.6-10.4,3-19.3,7.4-28.9,8.8-19.1,23.1-41.2,34.7-66.8,11.5-25.5,20.2-53.9,18.3-84.1-1.8-29.3-13.2-60.8-43.5-95.1-1,0-1.9-.2-2.9-.3h0c-30.5-2.9-68-10.3-100.1-25.2-23.8-11-45.4-26.8-56.9-48.6-7.3-.2-117.5-2.6-236.5,57.2Z" fill="currentColor"/>
  </symbol>
</svg>
