<svg xmlns="http://www.w3.org/2000/svg">
  <symbol id="icon" viewBox="0 0 1905.27 475.09" fill="currentColor">
    <!-- Generator: Adobe Illustrator 28.7.5, SVG Export Plug-In . SVG Version: 1.2.0 Build 176)  -->
      <g>
        <g id="Layer_1">
          <g id="Layer_1-2" data-name="Layer_1">
            <g>
              <path d="M1659.28,424.12c-1.85-1.61-3.93-3.02-5.49-4.87-3.16-3.75-6.03-7.74-9.04-11.62-3.66-4.7-7.3-9.42-11.04-14.05-8.16-10.08-16.45-20.05-24.57-30.16-5.58-6.94-10.9-14.09-16.46-21.04-4.75-5.93-9.69-11.7-14.51-17.58-4.72-5.76-9.36-11.6-14.1-17.34-2.18-2.64-4.64-5.06-6.77-7.74-4.12-5.18-8-10.55-12.16-15.7-4.06-5.03-8.33-9.88-12.51-14.81-4.48-5.27-9.06-10.46-13.41-15.83-5.86-7.24-11.52-14.64-17.32-21.94-7.4-9.31-14.88-18.55-22.25-27.89-2.47-3.13-4.69-6.47-6.99-9.67-5.36,3.91-8.09,9.63-11.26,15.01-6.97,11.77-13.92,23.56-20.83,35.36-4.75,8.1-9.37,16.28-14.13,24.37-6.69,11.37-13.46,22.7-20.18,34.06-7.43,12.55-14.82,25.13-22.27,37.67-7.1,11.94-14.29,23.82-21.41,35.75-4.31,7.22-8.55,14.49-12.82,21.74-1.73,2.93-3.4,5.89-5.21,8.77-.4.64-1.55,1.48-1.95,1.3-.7-.3-1.51-1.33-1.51-2.05,0-3.62.06-7.26.43-10.85.5-4.89,1.34-9.75,1.98-14.62.72-5.45,1.39-10.91,2.05-16.37.67-5.51,1.23-11.04,2.01-16.53.75-5.33,1.79-10.62,2.56-15.94.81-5.56,1.37-11.15,2.19-16.7.67-4.56,1.67-9.08,2.31-13.65.46-3.28.37-6.63.85-9.9,1.87-12.73,3.94-25.43,5.8-38.17.79-5.42,1.13-10.9,1.87-16.33,1.05-7.71,2.31-15.4,3.43-23.11.7-4.85,1.25-9.72,1.95-14.57,1.67-11.59,3.45-23.17,5.05-34.78.92-6.68,1.48-13.41,2.36-20.09,1.03-7.87,2.31-15.7,3.3-23.58.97-7.68,1.73-15.38,2.54-23.07.42-3.96.78-7.93,1.05-11.9.06-.88-.38-1.79-.11-2.95,17.53,30.13,35.07,60.26,52.9,90.9,21.12-32.22,41.95-63.99,62.82-95.82,54.21,115.41,109.17,229.95,161.67,345.64-.26.22-.51.43-.77.65h-.05Z"/>
              <path d="M702.48,189.42c-9.53,21.51-19.05,43.01-28.69,64.77-12.74-21.65-25.37-43.1-38.16-64.81-51.39,80.59-102.57,160.85-153.83,241.23-2.27-1.43-2.25-3.55-1.69-5.34,1.35-4.28,3.14-8.41,4.65-12.64,3.74-10.48,7.49-20.97,11.12-31.49,3.1-8.99,6.03-18.04,9.06-27.05,5.61-16.65,11.26-33.29,16.85-49.95,3.37-10.05,6.58-20.15,9.99-30.18,3.47-10.23,7.18-20.37,10.64-30.61,3.7-10.94,7.19-21.96,10.84-32.92,3.58-10.78,7.24-21.53,10.87-32.29,4.43-13.09,8.89-26.16,13.3-39.25,3.43-10.19,6.82-20.39,10.22-30.6,3.85-11.55,7.66-23.12,11.54-34.66.5-1.49,1.29-2.89,2.45-4.35,5.47,25.35,10.37,50.74,14.94,76.64,1.96-3.35,3.85-6.49,5.67-9.68,5.24-9.18,10.52-18.34,15.64-27.59,5.76-10.41,11.3-20.95,17.07-31.36,2.26-4.09,4.87-7.98,7.39-11.93.28-.43,1.15-.98,1.39-.85.55.32,1.08.96,1.28,1.57,1.34,4.17,2.62,8.35,3.85,12.55,1.66,5.67,3.31,11.34,4.85,17.04,2.39,8.82,4.68,17.66,7.04,26.48,1.43,5.36,2.93,10.7,4.35,16.05.68,2.54,1.25,5.11,2.54,7.73,1.8-5.57,3.55-11.15,5.4-16.69,1.43-4.28,2.98-8.51,4.47-12.77,1.01-2.9,2.11-5.77,3-8.7,2.66-8.78,5.21-17.59,7.86-26.37,1.72-5.7,3.52-11.38,5.36-17.04.22-.68.92-1.2,1.4-1.8.44.49,1.1.91,1.27,1.48,2.46,8.16,4.9,16.33,7.26,24.52,2.6,9.02,5.13,18.07,7.67,27.11,3.28,11.7,6.53,23.4,9.78,35.1,1.25,4.5,2.41,9.02,3.7,13.51,1.72,5.95,3.62,11.85,5.28,17.81,1.08,3.88,1.83,7.85,2.85,11.75.78,3.01,1.8,5.95,2.61,8.95,1.13,4.17,2.12,8.38,3.25,12.55.93,3.45,2.01,6.86,2.97,10.31,1.27,4.58,2.43,9.19,3.75,13.75.96,3.3,2.2,6.52,3.16,9.82.82,2.81,1.35,5.71,2.16,8.52,1.37,4.8,2.95,9.55,4.27,14.36,1.26,4.58,2.28,9.23,3.46,13.84,1.15,4.5,2.31,9,3.53,13.48,1.36,5.01,2.8,10,4.21,14.99,3.02,10.7,6.05,21.39,9.07,32.09,2.92,10.35,5.87,20.7,8.74,31.06,1.97,7.09,3.8,14.21,5.75,21.31.57,2.08,1.2,4.48-1.2,5.36-2.08.76-3.59-.79-4.6-2.97-4.37-9.41-8.95-18.72-13.44-28.07-4.83-10.06-9.69-20.11-14.46-30.2-4.9-10.36-9.66-20.79-14.55-31.16-4.32-9.15-8.76-18.25-13.08-27.4-7.24-15.34-14.4-30.73-21.65-46.07-4.01-8.48-8.18-16.9-12.24-25.36-2.86-5.96-5.64-11.95-8.48-17.91-.85-1.78-1.77-3.52-2.67-5.27-.35-.14-.7-.28-1.05-.41h.02Z"/>
              <path d="M1244.89,418.77c-2.24-2.83-4.29-5.46-6.39-8.05-7.94-9.78-15.96-19.49-23.83-29.33-7.83-9.79-15.45-19.76-23.28-29.56-6.22-7.78-12.72-15.34-18.92-23.13-6.01-7.55-11.75-15.32-17.72-22.91-2.71-3.45-5.74-6.66-8.5-10.07-4.56-5.64-8.99-11.4-13.54-17.05-3.34-4.15-6.76-8.23-10.18-12.31-1.22-1.46-1.72-2.64-.59-4.65,5.91-10.48,11.59-21.09,17.36-31.66,5.55-10.17,11.14-20.32,16.63-30.52,4.29-7.97,8.36-16.05,12.7-23.99,5.38-9.83,11.02-19.51,16.4-29.33,4.17-7.63,8.07-15.41,12.18-23.07,2.27-4.24,4.79-8.35,7.09-12.58,2.55-4.69,4.94-9.47,7.48-14.17,1.89-3.49,3.9-6.91,5.94-10.5,3.38,4.05,6.51,7.76,9.59,11.51,5.36,6.51,10.72,13.01,16.03,19.56,5.97,7.36,11.9,14.76,17.8,22.17,5.76,7.23,11.44,14.53,17.21,21.76,3.48,4.35,7.13,8.57,10.61,12.93,4.75,5.96,9.33,12.04,14.1,17.98,6.5,8.1,13.08,16.13,19.66,24.17,5.44,6.65,10.82,13.34,16.44,19.84,1.59,1.83,1.39,3.07.34,4.95-3.62,6.5-7.03,13.12-10.56,19.67-2.96,5.49-6.01,10.93-8.93,16.45-2.71,5.14-5.23,10.38-7.96,15.51-2.32,4.36-4.84,8.61-7.2,12.95-.93,1.72-1.56,3.61-2.48,5.33-3.05,5.7-6.21,11.33-9.24,17.04-1.59,2.98-2.94,6.09-4.5,9.09-2.3,4.4-4.74,8.73-7.05,13.13-2.47,4.69-4.83,9.43-7.3,14.12-2.82,5.35-5.73,10.65-8.56,16-2.05,3.86-3.97,7.79-6.04,11.64-2.78,5.18-5.65,10.31-8.45,15.47-1.89,3.49-3.73,7-5.6,10.51-.15.28-.35.54-.73,1.12v-.02ZM1269.73,216.2c-1.23-7.84-2.81-9.98-8.36-8.61-.78.19-1.61.13-2.42.22-7.86.85-15.73,1.68-23.59,2.59-9.12,1.05-18.24,2.18-27.36,3.25-8.07.95-16.15,1.79-24.19,2.9-1.47.2-3.56.36-3.02,3.3.8,4.36.87,8.84,1.43,13.25,1.23,9.79,2.47,19.58,3.87,29.35,1.62,11.31,3.38,22.6,5.17,33.89.27,1.72,1.04,2.96,3.37,2.56,4.73-.82,9.51-1.36,14.28-1.95,9.5-1.17,19.02-2.21,28.51-3.46,11.48-1.51,22.94-3.19,34.42-4.75,3.95-.54,5.44-2.08,5.2-6.07-.23-4.01-.66-8.01-1.11-12-1.05-9.38-2.17-18.75-3.25-28.13-.56-4.88-1.1-9.77-1.65-14.65-.48-4.31-.97-8.61-1.31-11.68h0Z"/>
              <path d="M411.74,158.99c44.31-30.66,88.68-61.37,133.02-92.04.35.37.44.49.56.59,3.05,2.45,1.08,4.55-.33,6.86-4.8,7.89-44.88,76.38-50.24,85.42-3.23,5.44-135.21,230.66-138.94,237.07-2.17,3.74-4.48,7.4-6.67,11.12-2.12,3.59-4.23,7.19-6.23,10.85-1.4,2.57-3.13,4.7-6.51,6.2.29-2.46.48-4.43.76-6.38.84-5.77,1.68-11.55,2.58-17.31,1.1-7.02,2.27-14.04,3.39-21.06,1.28-8.06,2.54-16.12,3.8-24.18.92-5.91,1.8-11.82,2.74-17.73,1.4-8.87,2.83-17.73,4.25-26.59.95-5.91,1.89-11.81,2.85-17.72,1.61-9.82,3.2-19.64,4.86-29.45,1.73-10.2,2.93-20.55,5.57-30.51,1.32-4.99-1.35-8.06-2.86-11.51-6.2-14.19-13-28.12-19.58-42.14-5.36-11.43-10.67-22.88-16.1-34.28-7.12-14.95-14.45-29.8-21.48-44.78-5.47-11.65-10.62-23.46-15.9-35.2-.17-.37-.16-.82-.39-2.06,40.64,31.89,80.68,63.31,120.85,94.83h0Z"/>
              <path d="M784.79,73.13c2.71,4.02,5.35,7.91,7.97,11.81,2.73,4.07,5.48,8.11,8.13,12.23,2.97,4.61,5.82,9.31,8.77,13.94,7.62,11.93,15.23,23.88,22.93,35.76,5.94,9.15,12.1,18.16,18.02,27.32,6.27,9.7,12.37,19.5,18.56,29.25,5.65,8.89,11.26,17.8,16.99,26.63,4.51,6.95,9.21,13.78,13.76,20.71,2.79,4.25,4.7,4.6,9.53,2.86,4.33-1.56,8.95-2.3,13.4-3.56,8.1-2.3,16.16-4.74,24.24-7.09,9.49-2.76,18.98-5.48,28.47-8.23,3.25-.94,6.48-1.93,10.16-3.03.99,2.74,2.07,5.25,2.8,7.86,2.52,8.94,4.85,17.92,7.37,26.86,4.54,16.09,9.18,32.15,13.77,48.23,4.02,14.08,8.06,28.15,12.06,42.24,1.63,5.74,3.09,11.54,4.79,17.26.65,2.17-.57,2.86-2.11,3.28-5.95,1.65-11.93,3.2-17.9,4.79-10.58,2.81-21.17,5.57-31.73,8.46-6.68,1.83-13.28,3.97-19.97,5.8-9.72,2.66-19.5,5.14-29.23,7.76-12.12,3.27-24.22,6.61-36.33,9.93-4.48,1.23-8.95,2.51-13.44,3.72-2.08.56-3.77-.91-4.54-3.87-2.47-9.49-4.96-18.97-7.41-28.47-2.39-9.22-4.71-18.46-7.12-27.68-3.06-11.73-6.22-23.43-9.25-35.16-1.61-6.25-2.96-12.57-4.54-18.83-1.54-6.11-3.21-12.19-4.84-18.28-1.63-6.11-3.23-12.24-4.95-18.32-1.73-6.13-3.67-12.2-5.37-18.34-1.27-4.57-2.28-9.22-3.47-13.82-.88-3.4-1.85-6.77-2.77-10.16-1.08-3.99-2.16-7.99-3.22-11.99-1.67-6.34-3.32-12.69-4.97-19.03-2.57-9.89-5.08-19.79-7.71-29.67-2.92-10.97-5.97-21.91-8.92-32.87-2.53-9.4-5.03-18.8-7.46-28.22-2.04-7.89-4.02-15.8-5.9-23.73-.49-2.08-1.04-4.39,1.42-6.32v-.03ZM998.35,304.46c-.75-.86-1.38-1.95-2.33-2.59-1.28-.87-2.78-1.43-4.2-2.08-8.45-3.86-16.95-7.63-25.36-11.59-13.14-6.18-26.21-12.51-39.34-18.73-2.5-1.19-5.11-2.14-7.65-3.24-1.65-.71-2.64-.23-3.39,1.41-2.77,6.08-5.62,12.13-8.47,18.18-6.75,14.36-13.55,28.71-20.27,43.09-2.63,5.63-5.04,11.35-7.66,16.98-1.78,3.82-1.93,3.93,1.74,5.73,6.38,3.12,12.83,6.12,19.32,9.03,11.77,5.28,23.6,10.45,35.39,15.68,6.94,3.08,13.86,6.23,20.81,9.28,2.2.96,4.01.02,5.09-2.3,2.84-6.12,5.73-12.21,8.57-18.33,3.73-8.04,7.38-16.12,11.15-24.15,4.39-9.34,8.9-18.63,13.28-27.98,1.21-2.59,2.12-5.32,3.32-8.38h0Z"/>
              <path d="M1621.99,193.23c.66-2.4,2.36-2.92,4.2-2.92,5.95.02,11.9.2,17.85.23,8.69.04,17.38,0,25.97,0,10.3-50.72,20.48-100.85,30.62-150.8,2.78-1.16,3.79.07,4.42,2.22,2.08,7.15,4.25,14.27,6.32,21.41,1.81,6.24,3.5,12.51,5.29,18.76,2.67,9.29,5.4,18.57,8.06,27.87,2.47,8.66,4.87,17.35,7.29,26.02.9,3.24,1.78,6.49,2.69,9.72,1.67,5.92,3.3,11.86,5.05,17.76,2.37,8,4.94,15.94,7.18,23.97.57,2.06,1.43,2.69,3.43,2.67,15.35-.13,30.7-.25,46.05-.25,13.55,0,27.09.17,40.64.22,13.84.05,27.68.03,41.51.09,1.52,0,3.08.17,4.56.51.59.13,1.23.86,1.47,1.46.15.39-.26,1.36-.65,1.53-2.85,1.23-5.68,2.74-8.67,3.39-10.58,2.29-21.23,4.23-31.84,6.4-9.05,1.85-18.06,3.93-27.12,5.75-11.17,2.24-22.39,4.27-33.56,6.48-10.2,2.02-20.38,4.15-30.55,6.33-.59.13-1.26,1.1-1.41,1.78-1.18,5.42-2.24,10.86-3.33,16.3-.69,3.47-1.36,6.93-2.02,10.41-1.13,5.95-2.16,11.93-3.38,17.86-1.32,6.41-2.85,12.77-4.2,19.17-1.34,6.4-2.53,12.83-3.85,19.24-1.2,5.8-2.5,11.59-3.76,17.38-1.16,5.39-2.35,10.78-3.47,16.19-1.49,7.2-2.86,14.42-4.38,21.61-2,9.44-4.12,18.86-6.15,28.29-2.01,9.38-4.07,18.74-5.91,28.15-.72,3.69-.86,7.5-1.4,11.24-.23,1.63-.8,3.21-1.22,4.82-.42,0-.84-.01-1.25-.02-.78-2.08-1.84-4.11-2.29-6.26-3.6-17.23-7.06-34.49-10.62-51.73-1.18-5.72-2.64-11.38-3.8-17.11-1.76-8.65-3.24-17.36-5.07-25.99-2.13-10.05-4.59-20.03-6.75-30.07-1.42-6.58-2.48-13.25-3.89-19.83-1.52-7.12-3.29-14.18-4.89-21.28-1.3-5.78-2.5-11.58-3.78-17.37-.37-1.66-.86-3.29-1.3-4.97-12.05,2.42-24.05,4.85-36.05,7.23-1.4.28-3.06.52-3.56-1.36-.21-.79-.03-2.14.51-2.58,5.88-4.86,11.85-9.6,17.83-14.34,5.06-4.01,10.17-7.96,15.23-11.97,1.95-1.54,1.79-3.09-.26-4.21-7.38-4.01-14.7-8.13-22.13-12.06-3.66-1.93-7.53-3.46-11.25-5.3-.91-.45-1.59-1.36-2.41-2.08v.03Z"/>
              <path d="M159.55,246.62c-36.42,1.42-72.65,2.83-109.66,4.27,45.34-62.37,90.25-124.15,135.63-186.56-6.35,47.09-15.45,93.05-24.75,138.98,4.56,0,8.99.12,13.41-.02,11.28-.36,22.56-.79,33.84-1.29,9.61-.43,19.21-1.02,28.82-1.5,11.29-.56,22.58-1.12,33.87-1.56,1.1-.04,2.24.75,3.36,1.16-.45,1.07-.81,2.18-1.37,3.19-2.02,3.69-4.11,7.35-6.17,11.02-9.62,17.17-19.24,34.35-28.85,51.53-8.22,14.67-16.42,29.35-24.66,44.01-6.55,11.66-13.17,23.27-19.72,34.93-4.89,8.7-9.69,17.45-14.55,26.16-5.06,9.07-10.16,18.12-15.22,27.18-3.19,5.71-6.64,11.31-9.39,17.23-.86,1.85-1.47,3.07-3.85,3.7.24-3.42.57-6.61.68-9.8.42-11.98.67-23.97,1.17-35.95.33-7.8.96-15.58,1.48-23.37.52-7.79,1.09-15.58,1.58-23.37.21-3.36.28-6.73.42-10.1.2-4.67.36-9.35.61-14.02.26-5.04.58-10.07.9-15.1.49-7.61,1.04-15.22,1.5-22.83.35-5.85.6-11.71.92-17.88h0Z"/>
              <path d="M1122.17,412.78c-24.03,3.34-47.78,6.64-71.93,9.99-.2-6.11-.39-11.95-.59-17.79-.46-13.03-.98-26.06-1.37-39.09-.32-10.65-.46-21.31-.73-31.97-.2-7.87-.48-15.74-.69-23.61-.18-6.89-.29-13.77-.48-20.66-.16-5.55-.45-11.09-.57-16.64-.1-4.68.09-9.36-.09-14.03-.22-5.66-.74-11.31-1.02-16.97-.11-2.24.13-4.49.1-6.73-.07-5.57-.19-11.14-.33-16.71-.15-6.1-.41-12.19-.5-18.29-.08-5.23.19-10.47,0-15.7-.21-6.16-.85-12.31-1.1-18.48-.16-3.87.09-7.76.06-11.63-.04-5.34-.02-10.69-.35-16.01-.09-1.44-1.04-3.2-2.16-4.16-7.48-6.36-15.09-12.56-22.69-18.77-4.72-3.86-9.49-7.66-14.43-11.64,12.95-17.36,25.97-34.82,39.11-52.44,17.32,12.8,34.33,25.38,51.73,38.24-1.55,2.29-3.1,4.7-4.77,7.01-3.92,5.4-7.87,10.79-11.87,16.13-3.72,4.96-7.2,10.15-11.38,14.69-5.45,5.92-4.97,12.33-3.2,19.29,1.93,7.59,3.57,15.25,5.28,22.89,1.57,6.99,3.05,14,4.62,20.99,1.91,8.53,3.85,17.06,5.78,25.58,2.25,9.96,4.53,19.92,6.75,29.89,2.5,11.24,4.92,22.51,7.42,33.75,2.07,9.3,4.24,18.58,6.3,27.89,1.61,7.27,3.12,14.57,4.7,21.85,2.19,10.08,4.44,20.14,6.62,30.22,1.82,8.44,3.5,16.91,5.38,25.34,2.03,9.12,4.22,18.21,6.41,27.57h-.01Z"/>
            </g>
          </g>
        </g>
      </g>
  </symbol>
</svg>
