<svg xmlns="http://www.w3.org/2000/svg">
  <symbol id="icon" viewBox="0 0 1905.27 475.09" fill="currentColor">
    <!-- Generator: Adobe Illustrator 28.7.5, SVG Export Plug-In . SVG Version: 1.2.0 Build 176)  -->
      <g>
        <g id="Layer_1">
          <g>
            <path d="M324.85,318.53c3.89,9.95,8.7,19.28,14.93,27.79,5.66,7.75,12.12,14.93,21.07,18.91,6.42,2.85,13.24,5.2,20.43,4.78,3.14-.19,6.41-1.23,9.24-2.65,4.03-2.02,8.28-4.15,11.4-7.28,5.95-5.96,9.89-13.23,12.4-21.48,1.96-6.44,3.35-12.91,3.32-19.5-.02-4.64-.95-9.53-2.64-13.85-2.48-6.36-8.85-7.95-14.77-9.01-6.84-1.23-13.96-1.02-20.75-2.41-9.5-1.94-19.03-4.2-28.14-7.45-6.2-2.21-11.41-6.78-15.8-11.89-4.33-5.03-8.94-9.9-12.68-15.35-3.05-4.45-5.26-9.55-7.38-14.55-2.32-5.47-4.47-11.07-6.01-16.8-2.02-7.47-3.7-15.07-4.92-22.71-1.66-10.31-2.86-20.69-4.04-31.07-1.03-9.04-1.36-18.17-2.71-27.15-1.5-10.03-3.72-19.96-5.77-29.9-1.45-7.04-3.92-13.77-7.67-19.91-3.45-5.64-8.29-9.81-14.62-12.1-.8-.29-1.57-.65-2.35-.98-.02-.25-.04-.51-.07-.76,4.76-1.67,9.43-3.71,14.31-4.92,9.26-2.3,18.52-1.67,27.6,1.31,8.48,2.78,16.32,6.76,23.15,12.56,5.38,4.57,11.05,8.89,15.81,14.04,5.61,6.08,10.45,12.89,15.48,19.49,1.91,2.51,3.49,5.28,5.1,8.01,3.11,5.28,6.47,10.46,9.08,15.98,2.95,6.22,5.18,12.78,7.74,19.19,1.84,4.6,3.94,9.12,5.54,13.81,1.55,4.53,2.6,9.23,3.89,13.86,1.23,4.43,2.61,8.83,3.68,13.29.68,2.85.85,5.81,1.4,8.7.89,4.72,2.13,9.39,2.8,14.14.86,6.15,1.35,12.36,1.92,18.56.59,6.35.64,12.79,1.76,19.05,1.2,6.71,9.22,12.89,16.99,10.69,5.08-1.44,8.52-4.97,10.66-9.84,5.58-12.69,9.11-26,11.71-39.55,1.82-9.49,3.19-19.07,4.65-28.63,1.72-11.26,3.08-22.59,5.02-33.81,1.86-10.81,4.95-21.33,8.67-31.67,2.73-7.58,6.05-14.87,10.88-21.3,4.56-6.08,9.31-12.08,14.56-17.55,4.43-4.62,9.43-8.83,14.66-12.52,6.38-4.5,12.95-8.96,20.96-10.24,7.62-1.22,15.27-2.57,22.97-.84,3.11.7,6.11,1.86,8.62,2.65-4.4,4.07-9.49,7.88-13.43,12.64-4.88,5.9-8.95,12.5-13.1,18.97-5.58,8.7-9.63,18.13-12.8,27.96-.98,3.05-2.74,5.85-3.72,8.9-2.19,6.75-4.29,13.54-6.08,20.4-1.46,5.62-2.55,11.34-3.56,17.06-.7,3.95-1,7.97-1.46,11.95-.55,4.76-1.15,9.52-1.6,14.29-.52,5.44-1.05,10.88-1.3,16.34-.53,11.42-.87,22.85-1.31,34.28-.23,5.73-.46,11.46-.81,17.18-.29,4.65-.3,9.38-1.22,13.91-2.47,12.1-5.2,24.16-8.2,36.14-.98,3.9-3.02,7.56-4.74,11.25-2.6,5.57-5.19,11.16-8.07,16.59-2.19,4.12-4.64,8.12-7.3,11.95-3.2,4.61-6.5,9.19-10.2,13.4-4,4.56-8.27,8.94-12.85,12.91-4.23,3.67-8.78,7.11-13.63,9.89-4.62,2.65-9.73,4.51-14.77,6.34-4.17,1.52-8.46,2.93-12.82,3.6-6.32.97-12.71,1.36-19.17.56-6.55-.81-12.68-2.81-18.74-5.24-6.48-2.59-12.25-6.21-17.01-11.39-3.85-4.2-8.12-8.06-11.63-12.52-6.65-8.43-10.28-18.4-13.23-28.59-3.1-10.66-3.24-21.38-.12-32.11.54-1.86.58-3.86.84-5.8Z"/>
            <path d="M1414.94,140.07c3.92-4.92,7.55-9.09,10.72-13.58,3.98-5.63,9.77-9.23,14.64-13.85,7.92-7.5,17.38-12.73,27.24-16.91,5.84-2.48,12.48-3.27,18.86-4.23,4.16-.63,8.53-.59,12.72-.12,4.88.55,9.77,1.58,14.49,2.96,9.19,2.7,17.31,7.69,24.85,13.42,7.67,5.84,14.78,12.35,19.74,20.85,3.86,6.62,8.59,12.83,11.61,19.8,2.51,5.78,3.11,12.39,4.54,18.64,1.03,4.52,2.14,9.02,3.02,13.57.69,3.59,1.04,7.23,1.6,10.85.46,2.99,1.04,5.96,1.5,8.95.77,5.02,1.52,10.03,2.21,15.06.68,4.95,1.22,9.92,1.95,14.86.89,6.01,1.93,12,2.88,18,.8,5.05,1.64,10.11,2.29,15.18.56,4.29.67,8.65,1.36,12.92.95,5.91,2.31,11.74,3.39,17.63,1.15,6.21,1.91,12.51,3.34,18.65,1.61,6.94,3.89,13.72,5.65,20.62,2.01,7.89,4.56,15.57,8.63,22.64,2.67,4.63,5.6,9.12,8.6,13.55,2.27,3.34,4.57,6.73,7.33,9.64,4.73,4.97,9.9,9.51,14.76,14.36,2.89,2.88,5.32,6.23,8.33,8.95,4.91,4.43,9.78,9.02,16.07,11.6,1.19.49,2.24,1.32,3.48,2.06-2.81,3.7-6.61,2.24-9.7,1.78-6.17-.9-12.3-2.35-18.3-4.1-5.58-1.63-11.13-3.56-16.38-6.04-8.52-4.01-17.12-8.03-25.04-13.06-7.5-4.76-14.65-10.32-21.09-16.43-7.12-6.75-14.04-13.99-19.63-22-6.57-9.43-11.49-19.86-14.8-31.13-2.54-8.65-3.81-17.46-5.57-26.2-2.31-11.5-3.32-23.18-3.72-34.91-.23-6.71-.4-13.42-.86-20.11-.28-4.03-1.41-8.01-1.54-12.03-.33-9.79-.08-19.61-.5-29.4-.19-4.48-1.31-8.93-2.22-13.36-.77-3.73-1.76-7.42-2.8-11.09-1.91-6.7-4.96-12.83-10.63-17.1-4.41-3.32-9.01-6.51-13.91-9.03-2.79-1.44-6.33-1.87-9.55-1.94-3.9-.09-7.86.46-11.73,1.14-5.58.98-9.92,4.02-13.53,8.43-3.74,4.56-5.84,9.92-8.15,15.18-1.25,2.86-2.38,5.81-3.16,8.82-1.06,4.08-1.63,8.28-2.59,12.38-.87,3.74-2.07,7.4-2.96,11.14-.39,1.65-.33,3.4-.6,5.08-.64,3.96-1.06,7.99-2.13,11.83-1.82,6.53-2.14,13.29-3.54,19.85-.89,4.18-1.31,8.46-2.4,12.52-.92,3.42-1.25,6.85-1.86,10.27-.63,3.52-1.58,6.99-2.27,10.51-1.33,6.87-3.4,13.55-5.64,20.16-1.44,4.27-3.62,8.29-5.55,12.38-.31.67-1.02,1.15-.94,1.86-.17.74-.15,1.59-.53,2.2-1.64,2.63-3.36,5.22-5.11,7.77-1.71,2.5-3.57,4.91-5.22,7.44-.51.78-.4,1.95-.88,2.77-1.3,2.21-2.65,4.41-4.19,6.45-2.13,2.8-4.45,5.45-6.71,8.15-4.52,5.38-9,10.8-13.61,16.1-1.3,1.49-3.07,2.56-4.45,3.99-1.7,1.76-3.22,3.68-4.8,5.55-.22.27-.3.67-.55.9-3.13,2.83-6.31,5.61-9.41,8.48-1.64,1.52-3.06,3.28-4.73,4.76-4.55,4.02-8.71,8.47-14.32,11.27-6.15,3.08-12.01,6.76-18.03,10.11-4.64,2.59-16.01,4.92-21.61,4.45,2.96-3.02,5.72-6.01,8.66-8.8,4.56-4.31,9.63-8.15,13.77-12.82,4.35-4.9,7.87-10.53,11.72-15.86,4.29-5.93,8.8-11.71,12.73-17.87,2.42-3.79,4.18-8.05,5.82-12.26,2.55-6.57,4.81-13.26,7.06-19.95,3.16-9.36,6.17-18.78,9.31-28.15,1.11-3.3,2.6-6.47,3.59-9.8.81-2.72,1.1-5.59,1.7-8.38.99-4.64,2.08-9.25,3.05-13.89.72-3.45,1.36-6.92,1.95-10.4.38-2.24.6-4.51.91-6.76.32-2.36.84-4.71.96-7.09.2-4.04.45-8.12.15-12.14-.32-4.26-1.29-8.47-1.89-12.71-1.04-7.43-3.6-14.37-6.28-21.33-3.07-7.95-7.16-15.34-12.61-21.73-5-5.87-11.04-10.86-16.62-16.24-6.9-6.66-11.51-14.64-14.4-23.78-2.34-7.41-.39-14.17,2.12-20.99,2.28-6.2,5.98-11.79,11.09-15.55,7.26-5.34,15.27-10.11,24.96-9.39,7.54.56,15.4,1.04,21.79,5.34,5.84,3.93,10.85,8.9,13.27,16.18,3.14,9.43,2.46,18.49-.5,27.67-.41,1.27-.39,2.68-.67,4.8Z"/>
            <path d="M676.23,241.82c-3,.23-2.91-1.75-3.05-3.32-.26-2.96-.33-5.93-.47-8.9-.25-5.28-.49-10.55-.73-15.83-.32-7.07-.2-14.19-1.09-21.19-.96-7.59-1.62-15.43-6.46-21.96-3.18-4.29-11.36-5.75-15.8-2.9-2.78,1.78-2.65,4.86-3.28,7.39-2.21,8.85-3.59,17.91-6.06,26.68-2.89,10.27-3.54,20.75-4.44,31.24-.24,2.76-.75,5.49-1.17,8.45-1.82-.65-2.5-1.8-2.63-3.63-.48-6.89-.93-13.79-1.67-20.65-.92-8.5-1.73-17.05-3.3-25.44-1.31-7.01-3.32-13.93-8.12-19.63-3.25-3.87-10.3-4.32-14.16-1.17-5.72,4.67-6.98,11.46-9.37,17.81-2.9,7.7-3.27,15.84-4.27,23.84-1.24,9.99-1.86,20.07-2.78,30.1-1.01,11.09-1.93,22.19-3.1,33.26-.96,9.07-1.79,18.19-3.48,27.14-1.88,9.98-4.04,20-7.22,29.63-3.07,9.31-7.17,18.35-11.64,27.09-2.63,5.15-6.88,9.47-10.37,14.19-4.36,5.9-9.13,11.47-14.93,15.95-8.5,6.57-16.73,13.59-26.62,18.17-2.68,1.24-5.34,2.54-8.41,4.01.4-1.05.64-1.94,1.05-2.73,3.24-6.23,7.08-12.21,9.62-18.71,2.83-7.24,4.46-14.95,6.66-22.44,1.43-4.86,3.12-9.65,4.38-14.55,1.76-6.86,3.27-13.79,4.79-20.71.93-4.23,1.83-8.47,2.45-12.75,1.19-8.26,2.39-16.54,3.2-24.84,1.18-12.11,1.83-24.26,3.06-36.36.95-9.32,2.54-18.58,3.66-27.89.59-4.88.64-9.83,1.17-14.72.62-5.79,1.41-11.56,2.26-17.32,1.15-7.72,2.26-15.46,3.69-23.13,2.13-11.49,5.16-22.74,10.05-33.43,2.57-5.6,4.65-11.44,7.48-16.89,4.24-8.16,10.09-15.2,16.23-22.06,4.27-4.77,9.62-7.49,15.29-9.91,1.31-.56,2.53-1.32,3.85-1.83,6.22-2.44,12.69-2.1,19.23-2.15,7.17-.05,12.95,3.17,18.41,6.77,3.6,2.38,6.46,6.21,8.94,9.87,2.77,4.07,4.73,8.69,7.14,13.24.68-1.47,1.37-3.26,2.31-4.92,2.56-4.52,4.74-9.39,7.98-13.37,3.94-4.83,8.63-9.22,14.62-11.58,7.04-2.77,14.08-5.63,21.97-5.05,4.87.36,9.88-.38,14.65.43,4.72.79,9.5,2.36,13.72,4.6,3.97,2.11,8.31,3.92,11.28,7.78,3.19,4.13,7.42,7.55,10.15,11.92,3.72,5.95,7.17,12.27,9.41,18.88,2.13,6.26,2.73,13.07,3.67,19.69.85,6.02,1.35,12.09,1.81,18.15.48,6.15.68,12.32,1.09,18.48.44,6.44,1.06,12.87,1.47,19.32.35,5.44.38,10.91.77,16.35.39,5.5,1.08,10.97,1.59,16.46.62,6.65,1.15,13.3,1.78,19.95.27,2.83.85,5.63,1.03,8.46.46,6.96.61,13.95,1.2,20.9.53,6.28,1.56,12.52,2.24,18.79.33,3.09.16,6.24.59,9.32.86,6.18,1.95,12.32,3.01,18.47.55,3.2,1.09,6.41,1.9,9.55,1.71,6.59,3.66,13.12,5.41,19.7,2.83,10.64,5.3,21.43,10.17,31.37,3.1,6.32,6.81,12.34,10.22,18.51.24.43.28.97.42,1.46-.22.17-.45.33-.67.5-6.32-4.68-12.52-9.53-19-13.99-10.17-7-19.74-14.67-27.79-24.04-3-3.49-5.3-7.57-7.9-11.39-1.21-1.78-2.34-3.61-3.54-5.39-6.14-9.07-11.59-18.54-15.75-28.67-2.16-5.25-3.32-10.9-5.47-16.15-1.96-4.79-3.36-9.64-4.44-14.69-1.04-4.85-3.43-9.41-4.52-14.25-1.46-6.49-2.37-13.11-3.25-19.7-.73-5.47-1.22-10.99-1.54-16.5-.35-5.94-.3-11.9-.58-17.85-.37-7.79-.78-15.58-1.4-23.35-.57-7.09-1.35-14.17-2.2-21.24-.42-3.57-.66-7.29-1.93-10.58-1.51-3.94-2.62-8.09-6.75-10.93-2.4-1.66-4.77-2.52-7.13-2.43-1.98.08-4.4.51-6.01,2.84-3.9,5.67-5.32,12.14-6.38,18.65-1.52,9.33-2.68,18.74-3.67,28.14-.58,5.58-.38,11.25-.82,16.85-.33,4.24-1.11,8.44-1.71,12.76Z"/>
            <path d="M1240.18,416.28c-5.01,0-9.18.13-13.35-.04-4.07-.16-8.13-.57-12.19-.96-7.3-.71-14.12-3.03-20.7-6.21-2.28-1.1-4.93-1.51-7.04-2.84-2.69-1.69-5.2-3.81-7.45-6.07-5.33-5.36-10.86-10.59-15.58-16.47-6.72-8.37-12.77-17.27-17.26-27.1-2.71-5.94-5.26-11.95-7.8-17.96-3.41-8.08-6.49-16.28-8.54-24.85-.6-2.5-1.98-4.81-2.64-7.31-1.05-3.96-1.84-7.99-2.66-12-.85-4.14-1.67-8.29-2.37-12.46-.73-4.33-1.48-8.68-1.91-13.05-.64-6.58-1.28-13.18-1.39-19.78-.09-5.01.7-10.03.98-15.06.13-2.35-.19-4.73-.03-7.08.37-5.48.79-10.96,1.43-16.42.51-4.35,1.28-8.69,2.13-12.99,1.21-6.16,2.43-12.33,3.97-18.41.95-3.79,2.21-7.56,3.83-11.1,2.76-6.02,6-11.82,8.87-17.8,1.2-2.49,2.87-4.57,4.45-6.78,2.24-3.15,3.75-6.82,5.91-10.05,1.42-2.13,3.6-3.74,5.16-5.79,3.89-5.11,9.02-8.99,13.33-13.64,7.52-8.12,17.31-11.99,27.06-16.2,6.34-2.74,13-2.76,19.66-3.32,8.76-.74,17.42.3,25.94,1.85,8.21,1.49,15.75,5.12,22.93,9.41,8.89,5.32,16.47,12.13,23.9,19.32,7.03,6.8,12.22,14.68,16.67,23.14,2.62,4.98,4.2,10.49,6.64,15.58,4.84,10.1,8.14,20.7,9.99,31.68,1.49,8.83,2.43,17.78,3.16,26.72.73,8.96,1.16,17.97,1.22,26.96.06,8.48-.12,17.01-.91,25.45-1.05,11.3-2.36,22.61-4.38,33.76-1.26,6.99-3.9,13.74-6.17,20.52-2.43,7.28-5.28,14.41-7.69,21.69-3.61,10.9-8.38,21.24-15.33,30.38-5.23,6.87-10.58,13.68-17.69,18.9-6.67,4.89-13.29,9.84-21.09,12.74-4.46,1.66-9.19,2.58-13.07,3.63ZM1165.44,139.77c.49,1.58.84,2.6,1.12,3.64,3.64,13.42,7.23,26.85,10.92,40.26,2.45,8.89,5.06,17.73,7.54,26.61,2.24,8.02,4.41,16.07,6.59,24.11,2.06,7.59,4.09,15.19,6.11,22.8.15.56.27,1.22.11,1.75-1.81,5.95-3.77,11.85-5.52,17.82-2.06,7.01-3.92,14.08-5.91,21.11-2.22,7.85-4.52,15.68-6.74,23.53-3.21,11.35-6.36,22.71-9.57,34.06-.94,3.32.36,5.53,3.61,6.45,6.43,1.82,12.86,3.65,19.2,5.75,4.63,1.53,9.11,3.5,13.75,5.32,4.43-13.82,8.77-27.35,13.11-40.89.27.04.54.08.81.12,4.58,13.55,9.16,27.09,13.91,41.16,13.02-4.58,26.06-9.16,39.11-13.75-1.37-4.03-2.57-7.6-3.78-11.15-3.47-10.18-6.99-20.35-10.4-30.55-3.06-9.14-5.95-18.33-9.04-27.45-2.7-7.97-5.6-15.88-8.34-23.84-.65-1.9-1.69-4.03-1.35-5.82.76-4,2.39-7.82,3.49-11.76,4.14-14.8,8.26-29.61,12.31-44.44,3.6-13.18,7.07-26.39,10.63-39.58,2.1-7.78,4.29-15.53,6.65-24.06-12.62-3.82-25.05-7.58-37.41-11.32-2.62,9.4-5.12,18.21-7.51,27.05-2.55,9.42-4.94,18.88-7.56,28.28-.39,1.4-1.68,2.54-2.55,3.81-.82-1.28-2-2.46-2.39-3.86-4.22-15.29-8.29-30.63-12.46-45.94-.93-3.41-2.11-6.74-3.25-10.35-11.87,3.76-23.48,7.44-35.19,11.15Z"/>
            <path d="M54.83,327.38c1.6,2.45,3.15,4.94,4.82,7.33,2.58,3.68,5.06,7.38,8.83,10.16,3.23,2.38,5.95,5.49,8.71,8.45,4.48,4.81,10.16,7.85,15.81,10.89,7.97,4.29,16.65,5.84,25.62,6.76,7.01.72,13.91.39,20.8-.23,9.83-.88,18.91-4.24,27.53-9.15,5.33-3.04,9.65-7.1,13.35-11.71,6.25-7.78,11.66-16,13.14-26.37.86-6.02,1.98-11.94.75-17.94-.92-4.5-2.29-8.92-3.52-13.36-.57-2.06-.96-4.25-1.98-6.08-2.4-4.29-4.51-9-7.88-12.42-5.19-5.28-11.1-9.96-17.16-14.25-4.12-2.92-8.93-4.94-13.57-7.02-5.2-2.33-10.57-4.28-15.86-6.4-3.99-1.6-8.03-3.07-11.95-4.83-8.96-4.03-17.95-8.05-26.77-12.38-9.23-4.53-16.43-11.82-23.29-19.18-5.65-6.06-9.65-13.43-11.94-21.53-1.74-6.18-3.68-12.33-4.98-18.61-1.28-6.21-.88-12.55.23-18.82.2-1.14.04-2.36.29-3.48.62-2.69,1.48-5.34,2.04-8.04.21-1.01-.14-2.13-.21-3.2-.02-.34-.12-.75.03-1.01,1.89-3.27,3.77-6.54,5.75-9.75,1.87-3.02,3.69-6.09,5.84-8.9,2.71-3.54,5.54-7.05,8.69-10.2,3.19-3.18,7.15-5.61,10.22-8.89,6.23-6.66,14.96-8.76,22.52-12.94,5.46-3.02,11.14-5.83,17.03-7.86,6.06-2.09,12.44-3.36,18.78-4.5,4.7-.85,9.54-1.04,14.33-1.27,2.52-.12,5.06.29,7.59.46,2.91.2,5.84.3,8.73.65,4.3.51,8.57,1.31,12.87,1.79,7.06.8,13.09,4.31,19.4,7.1,6.9,3.04,12.61,7.51,17.46,13.28,1.91,2.28,4.62,3.89,7.36,6.13-7.29-1.91-14.01-3.81-20.8-5.39-2.55-.59-5.27-.62-7.91-.59-3.49.04-6.99.33-10.47.62-3.39.28-6.78.61-10.14,1.08-2.55.35-5.1.83-7.61,1.45-5.94,1.47-12,2.66-17.72,4.77-3.5,1.29-6.58,3.91-9.64,6.21-4.35,3.26-8.77,6.51-12.65,10.28-2.64,2.57-4.69,5.77-6.02,9.48-1.35,3.77-3.56,7.31-3.68,11.4-.2,6.58-1,13.22,1.44,19.65,1.28,3.38,1.43,7.52,3.54,10.17,3.1,3.89,7.18,7.25,11.42,9.94,5.36,3.4,11.16,6.25,17.03,8.69,5.63,2.34,11.61,3.84,17.41,5.76,1.44.48,2.78,1.24,4.21,1.74,5.1,1.78,10.3,3.32,15.31,5.32,3.59,1.44,7.07,3.27,10.38,5.29,5.78,3.52,11.62,7.03,17.01,11.1,5.22,3.93,10.24,8.23,13.68,13.99,3.39,5.67,6.93,11.26,10.16,17.02,2.24,4,4.57,8.08,5.92,12.41,2.6,8.34,5.34,16.77,6.49,25.37.98,7.37.36,15.08-.54,22.52-.88,7.38-2.7,14.68-4.65,21.88-1.62,6.01-3.65,11.96-7.39,17.13-5.67,7.83-11.01,15.9-17.02,23.45-3.34,4.19-7.61,7.69-11.73,11.19-4.43,3.77-9,7.45-13.83,10.68-8.85,5.94-18.25,10.84-28.78,13.22-6.54,1.48-12.98,3.65-19.59,4.51-5.97.78-12.12.08-18.18.26-7.78.24-15.24-1.73-22.82-2.89-6.9-1.05-13.04-4.29-19.51-6.6-5.71-2.03-9.89-6.19-14.91-9.15-1.6-.94-2.73-2.68-4.04-4.09-4.04-4.4-8.33-8.6-11.99-13.29-2.8-3.6-4.85-7.79-7.13-11.78-1.12-1.95-2.29-3.96-2.93-6.09-1.07-3.6-1.91-7.28-2.5-10.99-.69-4.38-1.16-8.8-1.39-13.23-.09-1.76.72-3.56,1.11-5.34.33.06.67.12,1,.18Z"/>
            <path d="M777.09,78.6c7.73,4.62,15.85,8.7,23.08,14,8.37,6.14,16.52,12.8,23.7,20.27,5.51,5.73,9.55,12.94,13.86,19.73,3.42,5.41,6.31,11.15,9.33,16.81,5.42,10.16,9.1,20.97,12.01,32.09,1.8,6.88,4.35,13.57,6.16,20.44,1.72,6.51,2.97,13.15,4.34,19.75,1.28,6.15,2.58,12.31,3.62,18.51.76,4.59,1.08,9.26,1.65,13.88.71,5.74,1.47,11.47,2.3,17.91,6.61-3.47,12.8-7.15,19.35-10.03,6.55-2.88,13.3-5.22,20.52-6.44,13.67-2.31,26.74-.33,39.94,3.13,11.28,2.96,19.84,9.64,27.99,17.39,9.51,9.05,15.58,20.07,19.16,32.5,2.39,8.31,3.23,16.91,3.26,25.54.02,5.5.05,11.05-.58,16.5-1.56,13.34-7.81,24.74-15.36,35.59-4.28,6.16-10.03,10.61-15.81,15.17-3.29,2.6-7.07,3.99-10.74,5.75-3.37,1.62-6.48,3.8-9.92,5.2-3.7,1.51-7.59,2.66-11.5,3.53-10.67,2.37-21.55,2.94-32.41,2.3-12.55-.74-24.69-3.65-35.66-9.94-6.03-3.46-11.62-7.75-17.11-12.05-4.64-3.64-9.18-7.53-13.1-11.9-2.86-3.2-4.79-7.27-6.81-11.13-2.43-4.64-4.68-9.39-6.69-14.22-1.45-3.5-2.55-7.18-3.5-10.86-1.6-6.24-3.11-12.51-4.35-18.83-.88-4.48-1.25-9.06-1.87-13.59-.88-6.55-1.84-13.08-2.64-19.64-.42-3.4-.52-6.85-.84-10.26-.2-2.16-.58-4.3-.83-6.46-.72-6.22-1.38-12.44-2.14-18.65-.73-5.87-1.67-11.72-2.32-17.6-.42-3.81-.44-7.65-.7-11.48-.53-7.87-1.01-15.75-1.69-23.6-.42-4.81-1.3-9.58-1.76-14.38-.55-5.77-.72-11.57-1.34-17.33-1.45-13.57-3.28-27.1-6.52-40.39-1.71-7-3.3-14.03-5.22-20.97-.71-2.55-2.14-4.93-3.39-7.3-2.3-4.37-4.76-8.65-7.05-13.02-1.57-2.99-2.83-6.15-4.49-9.08-1.25-2.2-2.91-4.17-4.39-6.25.16-.19.32-.38.48-.58ZM913.32,298.86c-.05-.12-.09-.24-.14-.36-1.51.67-3.17,1.12-4.5,2.04-2.24,1.56-4.33,3.35-6.39,5.15-3.63,3.17-7.11,6.32-9.5,10.77-3.38,6.31-3.73,13.11-3.18,19.67.3,3.64,1.4,7.75,3.96,11.34,4.45,6.25,9.98,10.34,17.32,12.08,3.94.93,7.95,2.26,11.91,2.19,4.22-.07,8.58-1.36,11.79-4.5,3.64-3.56,7.02-7.39,10.44-11.18.82-.91,1.6-2.02,1.94-3.17,1.52-5.16,2.22-10.29,1.78-15.84-.3-3.74-1.72-6.81-2.79-10.11-1.08-3.32-3.57-5.79-5.61-8.57-2.27-3.08-4.73-5.5-8.19-6.95-2.2-.92-4.4-2.24-6.69-2.48-4.01-.41-8.09-.11-12.15-.11Z"/>
            <path d="M1579.64,77.48c1.21-3.28,3-4.36,6.4-3.89,4.68.64,9.36,1.37,14.01,2.19,8.97,1.58,17.5,4.46,25.34,9.17,9.66,5.82,19.46,11.43,28.83,17.7,4.52,3.02,8.17,7.33,12.21,11.06,5.84,5.39,11.87,10.6,17.47,16.22,3.93,3.94,7.46,8.32,10.83,12.76,3.39,4.45,6.35,9.22,9.52,13.84.88,1.28,1.94,1.31,3.15.38,6.27-4.88,12.51-9.8,18.83-14.61,5.02-3.82,10.16-7.48,15.24-11.23,4.17-3.08,8.36-6.13,12.48-9.28,3.79-2.91,7.45-6,11.26-8.88,5.51-4.16,11.08-8.22,16.68-12.26,1.15-.83,2.71-2.07,3.77-1.82,1.22.29,2.17,1.96,3.11,3.13,5.05,6.35,10.06,12.73,15.09,19.09,3.25,4.11,6.54,8.19,9.75,12.32.43.55.53,1.35.78,2.03-.74.06-1.5.03-2.2.2-.86.21-2.13.36-2.45.95-1.55,2.92-4.15,4.51-6.75,6.31-4,2.77-7.71,5.95-11.55,8.96-8.27,6.49-16.51,13.03-24.82,19.47-6.46,5.01-12.99,9.93-19.52,14.85-5.18,3.91-10.46,7.7-15.56,11.72-.86.68-1.58,2.28-1.46,3.35.51,4.35,1.4,8.67,2.12,13,1.2,7.22,2.12,14.5,3.63,21.66,1.91,9.02,4.26,17.94,6.51,26.88,1.59,6.33,3.23,12.66,5.01,18.94,1.27,4.47,2.68,8.91,4.28,13.27,2.5,6.78,4.95,13.6,7.9,20.18,4.77,10.63,9.84,21.13,14.99,31.58,2.24,4.56,4.85,8.96,7.56,13.26,3.98,6.31,8.03,12.59,12.4,18.63,3,4.14,6.49,7.94,9.93,11.74,6.41,7.09,12.95,14.06,19.69,21.36-2.65-.3-5.15-.49-7.62-.87-4.79-.74-9.61-1.34-14.32-2.44-4.84-1.13-9.61-2.63-14.31-4.24-5.07-1.73-10.07-3.7-15.04-5.72-2.22-.9-4.4-2.01-6.38-3.34-4.71-3.18-9.31-6.53-13.94-9.83-2.63-1.88-5.42-3.58-7.81-5.73-3.63-3.28-7.16-6.71-10.39-10.38-3.45-3.9-6.67-8.03-9.68-12.28-3.24-4.56-6.31-9.26-9.11-14.1-3.55-6.15-6.84-12.45-10.05-18.78-2.58-5.09-5.03-10.26-7.25-15.51-2.2-5.22-4.2-10.54-5.98-15.91-2.51-7.55-4.88-15.15-7.05-22.8-1.87-6.59-3.41-13.28-5.03-19.94-.59-2.45-.97-4.95-1.45-7.43-.43-2.22-1.55-2.72-3.37-1.31-5.61,4.35-11.16,8.79-16.74,13.18-2.31,1.82-4.62,3.63-6.97,5.39-2.31,1.73-4.7,1.72-6.62-.48-3.54-4.05-6.76-8.37-10.23-12.49-2.98-3.54-6.23-6.87-9.15-10.46-2.35-2.9-4.44-6.02-6.52-9.12-1.19-1.78.39-2.9,1.45-3.84,3.46-3.07,6.98-6.08,10.59-8.97,5.02-4.01,10.12-7.93,15.24-11.81,4.99-3.78,10.11-7.39,15.01-11.29.74-.59,1.03-2.47.73-3.53-1.62-5.79-3.4-11.55-5.3-17.25-1.97-5.9-4.03-11.78-6.27-17.58-4.55-11.78-11.66-21.95-19.71-31.59-2.94-3.52-4.96-7.81-7.54-11.65-5.43-8.06-12.71-14.3-20.68-19.64-5.82-3.9-12.06-7.2-18.17-10.66-1.42-.8-3.07-1.18-4.82-1.83Z"/>
            <path d="M1152.73,411.39c-1.54.11-2.77.21-4,.3-6.11.42-12.21.86-18.32,1.26-9.64.63-19.27,1.02-28.66-2.07-5.38-1.77-11.13-2.76-16.1-5.3-5.81-2.97-11.19-6.93-16.29-11.05-3.95-3.19-7.4-7.09-10.68-11-4.38-5.22-7.61-11.14-9.45-17.8-2.62-9.49-5.45-18.92-8.15-28.39-2.62-9.17-5.46-18.29-7.69-27.55-2.28-9.49-4.19-19.08-5.83-28.7-2.31-13.59-4.01-27.28-6.41-40.85-.97-5.5-2.95-10.85-4.76-16.16-1.92-5.66-3.89-11.33-6.38-16.75-3.51-7.64-9.84-13.09-15.92-18.59-7.83-7.09-16.64-12.88-25.45-18.69-5.77-3.8-11.4-7.88-16.77-12.24-5.85-4.76-10.76-10.39-14.82-16.88-4.23-6.77-7.64-13.89-8.77-21.67-1.63-11.21-1.38-22.45,6.35-31.85,6.48-7.87,14.35-13.57,24.88-15.18,9.88-1.52,19.77-2.33,29.56-.33,6.66,1.36,12.96,3.95,18.32,8.66,5.43,4.78,10.3,9.85,13.16,16.54,1,2.34,1.69,4.85,2.21,7.35.55,2.65.9,5.36,1.05,8.06.45,8.37-2.28,15.39-9.09,20.61-2.17,1.66-4.08,3.76-6.44,5.03-2.95,1.58-6.23,2.57-9.4,3.72-3.57,1.3-4.47,2.24-4.26,5.57.05.76,1.16,1.84,1.99,2.08,8.66,2.61,17.64,4.49,25.48,9.17,6.82,4.07,13.48,8.5,19.79,13.31,9.56,7.3,17.61,16.2,24.33,26.13,4.48,6.61,7.46,14.07,10.73,21.38,3.84,8.57,3.65,17.55,4.74,26.44.89,7.26,2.01,14.5,3.01,21.75,1.16,8.4,1.92,16.88,3.54,25.2,1.6,8.17,4.04,16.17,6.17,24.23.73,2.77,1.55,5.51,2.45,8.23,1.13,3.37,2.38,6.7,3.6,10.04,1.46,4.01,2.88,8.03,4.43,12.01,1.01,2.6,2.27,5.1,3.35,7.68,1.54,3.69,3.02,7.41,4.54,11.1.44,1.06.93,2.09,1.45,3.11,3.7,7.3,8.08,14.2,13.65,20.17,4.3,4.62,9.21,8.68,13.96,12.87,3.39,2.99,6.97,5.78,10.9,9.02Z"/>
          </g>
        </g>
      </g>
  </symbol>
</svg>
