<svg xmlns="http://www.w3.org/2000/svg">
  <symbol id="icon" viewBox="0 0 191.49 197.11">
    <path d="M176.15,135.28h-35.34c-.11-1.32-.33-2.8-.34-4.28,0-2.66.11-5.31.18-7.97,0-.3-.04-.6,0-.9.1-.89.58-1.73-.02-2.68-.26-.41.02-1.09.03-1.65.01-.5,1.09-.95.02-1.57-.25-.15-.02-1.01,0-1.54.02-.62-.13-1.3.1-1.85.49-1.17-.47-2.43.35-3.54-.86-.95-.41-1.9-.03-2.87.07-.18-.06-.45-.12-.67-.52-1.95.14-2.93,2.21-3.1,1.32-.1,2.64-.09,3.97-.08,3.76.03,7.52.12,11.28.11,2.19,0,4.38-.22,6.57-.23,2.15-.01,4.3.09,6.45.2.66.03,1.3.28,1.96.4.3.06.63.12.93.07,1.32-.21,1.44-.15,1.49,1.08.06,1.51.09,3.02.1,4.54.03,4.52.02,9.04.08,13.57.05,3.68.18,7.36.25,11.05.01.56-.06,1.11-.11,1.91Z"/>
    <path d="M140.32,144.79c.98-.07,1.58-.15,2.18-.14,4.56.07,9.11.18,13.67.22,2,.02,4-.08,6-.11.53,0,1.07.06,1.6.12.33.04.78.3.95.18,1.24-.88,2.62-.17,3.91-.29,2-.18,4.04.09,6.06.21,1.59.09,1.8.37,1.81,1.86.02,3.51.06,7.03.15,10.54.13,5.46.31,10.91.45,16.37.05,1.89-2.19,3.29-4.01,2.43-1.15-.54-2.26-.39-3.42-.28-.33.03-.69.19-.97.1-2.59-.87-5.25.05-7.87-.28-2.14-.27-4.29.31-6.39.17-2.72-.18-5.4-.09-8.11-.05-1.85.03-3.7-.22-5.71-.35-.6-1.63-.67-3.37-.27-5.18.15-.66.05-1.36.05-2.05.02-3.37.05-6.75.04-10.12-.01-3.02-.08-6.04-.12-9.06-.02-1.37,0-2.74,0-4.28Z"/>
    <path d="M97.89,135.58v-31.86c.39-.42.88-.67,1.76-.67,4.56,0,9.12-.19,13.68-.23,4.82-.04,9.64.03,14.46.02,1.38,0,2.76-.11,4.35-.18.07,11.07.15,21.89.22,32.92h-34.47Z"/>
    <path d="M49.62,135.79H14.6c-.07-.59-.31-1.19-.17-1.69.69-2.49.03-4.99.18-7.48.09-1.46.17-2.9-.04-4.4-.27-1.93.17-3.93.24-5.91.03-.87-.23-1.75-.14-2.6.13-1.26-.11-2.51-.08-3.76s.08-2.49.03-3.74c-.09-2.27.69-2.17,2.33-2.09,1.98.1,3.97-.09,5.95-.11,2.35-.02,4.69,0,7.04,0,4.59.02,9.18.09,13.77.05,1.88-.02,3.76-.26,5.92-.43-.15,1.74-.28,3.22-.41,4.69-.01.12-.1.26-.06.37.76,2.22.22,4.49.31,6.74.12,3.03-.1,6.08.22,9.09.29,2.71-.42,5.4.16,8.11.2.93-.13,1.96-.24,3.16Z"/>
    <path d="M97.59,20.91h33.93c.21,1.28.53,2.37.54,3.47.02,1.98-.2,3.95-.12,5.94.09,2.05-.08,4.11-.11,6.16-.01,1.12.1,2.24.05,3.36-.12,3.03-.3,6.05-.46,9.07,0,.12-.1.3-.04.36,1.12,1.13.27,2.47.54,3.83-5.69.54-11.35.29-17,.36-5.64.07-11.27.02-17.17.02-.06-10.9-.12-21.59-.18-32.57Z"/>
    <path d="M175.64,60.98v30.89c-.64.51-1.54.64-2.67.48-1.1-.16-2.27.09-3.41.11-.93.02-1.86-.1-2.79-.05-.78.04-1.55.21-2.33.33-.25.04-.51.11-.76.11-1.44,0-2.89,0-4.33-.03-2.54-.04-5.09-.11-7.63-.14-.39,0-.78.16-1.18.19-.86.06-1.73.08-2.59.1-1.02.02-2.03,0-3.05.03-1.11.04-2.21.12-3.2.18-1.19-1.23-.29-2.46-.45-3.61-.2-1.39-.15-2.81-.12-4.21.03-1.75.17-3.49.23-5.24.05-1.84.14-3.68.07-5.52-.14-3.73-.35-7.45.11-11.17.05-.42-.15-.86-.15-1.29,0-.96.52-1.35,1.53-1.2.32.05.66.24.96.19,2.49-.45,4.97-.22,7.47-.15,3.09.08,6.19-.19,9.28-.25,2.63-.05,5.25.01,7.88-.04,1.09-.02,2.09.48,3.34-.06.89-.39,2.25.17,3.78.35Z"/>
    <path d="M132.22,61.88c-.69,2.57.46,5.18-.31,7.76,1.09,2.51-.22,5.08.22,7.66.43,2.57.08,5.25.08,7.88,0,2.54,0,5.09,0,7.77-1.54.14-2.89.35-4.25.36-1.71.01-3.42-.18-5.14-.23-1.46-.04-2.93-.01-4.39.02-2.95.06-5.89.12-8.84.22-1.14.04-2.28.28-3.41.22-2.19-.11-4.39.81-6.57-.11-.32-.13-.84.15-1.55.31-.13-.54-.38-1.1-.37-1.66.06-2.28.27-4.56.28-6.84.01-2.4-.17-4.79-.2-7.19-.02-1.79.11-3.59.09-5.39-.03-3.24-.12-6.49-.17-9.73,0-.37.1-.74.18-1.27.37,0,.74,0,1.12,0,1.89.03,3.78.09,5.67.08,1.91-.01,3.83-.1,5.74-.14.51-.01,1.02.03,1.53.02,3.18-.04,6.36-.06,9.55-.13.78-.02,1.56-.25,2.34-.26,2.34-.04,4.69-.06,7.03-.01.41,0,.81.38,1.38.66Z"/>
    <path d="M14.74,62.8c2.34,0,4.7-.03,7.06.01,1.13.02,2.26.18,3.4.29.2.02.43.17.57.11,2.15-.95,4.4-.2,6.6-.37,1.98-.16,4.02.27,6,.1,2.06-.18,4.16.67,6.17-.23.06-.03.15-.07.19-.04,1.26.67,2.6.02,4.07.15-.38,2.54.31,4.97.16,7.46-.16,2.62-.24,5.28.08,7.87.33,2.64,0,5.26.12,7.88.12,2.56.03,5.13.03,7.89-.5.05-1.15.14-1.8.18-4.36.23-8.72.14-13.08.09-2.47-.03-5,.48-7.41.16-1.79-.23-3.43.25-5.15.16-1.69-.09-3.38-.23-5.1-.05-1.6.17-2.02-.39-2.12-1.97-.09-1.39-.05-2.72.3-4.11.3-1.17-.01-2.48-.05-3.73-.06-2.22-.01-4.45-.19-6.67-.26-3.18.62-6.35-.11-9.53-.15-.66.21-1.41.24-2.12.05-1.15.01-2.31.01-3.54Z"/>
    <path d="M141.77,53.36V21.14c1.1-.1,2.28-.39,3.42-.28,1.58.16,3.11.03,4.67-.1,1.59-.13,3.2-.06,4.8,0,.8.03,1.58.3,2.38.3,1.19,0,2.47-.44,3.54-.14,1.22.33,2.3.09,3.45.07.86-.01,1.79-.01,2.57.28,1.09.4,2.14-.42,3.33.27.82.47,2.19.13,3.31.12.86-.01,1.7.52,1.88,1.39.16.74.2,1.5.21,2.26.06,6.3.1,12.6.17,18.9.03,2.2.16,4.4.19,6.59,0,.68-.19,1.35-.31,2.14-11.23.1-22.38.47-33.62.45Z"/>
    <path d="M14.76,53.81c-.52-5.28.29-10.58.12-15.85-.18-5.25.53-10.45.27-15.66,3.07-1.11,6.16-.7,9.25-.71,3.4,0,6.79.24,10.21-.17,2.57-.31,5.21-.04,7.82-.06,1.72-.01,3.44-.09,5.45-.15.06,1.81.12,3.46.17,5.11.04,1.35-.25,2.78.14,4.03.52,1.65-.27,3.19-.03,4.71.34,2.15.03,4.26.18,6.38.04.62.31,1.19-.06,1.8-.09.15-.16.35-.14.53.16,1.78.41,3.56.49,5.35.06,1.42-.1,2.84-.17,4.5-5.69-.78-11.19.04-16.67-.11-5.62-.15-11.2.58-17.03.3Z"/>
    <path d="M98.15,176.29c-.08-3.57-.19-6.68-.21-9.79-.02-3.25.06-6.49.07-9.74.01-3.88,0-7.75,0-11.85.52,0,1.04-.06,1.53.01,1.5.21,2.98.17,4.46-.13.5-.1,1.05-.03,1.58,0,.39.02.78.15,1.18.15,3.02.02,6.05.14,9.06,0,3.89-.2,7.76-.2,11.64-.03,1.19.05,2.39-.17,3.58-.24.92-.06,1.44.39,1.43,1.22-.03,2.42-.14,4.84-.16,7.26-.01,2.19.06,4.38.1,6.57,0,.5.16,1.02.05,1.49-.79,3.1-.06,6.18.02,9.27.04,1.31-.06,2.63-.11,3.94-.03.86-.59,1.29-1.46,1.21-3.18-.32-6.39.45-9.56-.18-.24-.05-.51,0-.77.02-2.78.21-5.55.8-8.34.06-.3-.08-.68-.05-.99.03-1.89.5-3.78.35-5.7.15-1.72-.18-3.45.3-5.2-.12-.5-.12-1.18.35-2.21.7Z"/>
    <path d="M49.48,145.25c.11.74.28,1.35.28,1.95-.02,3.87-.09,7.74-.11,11.61,0,2.82.24,5.65.02,8.45-.18,2.29.03,4.53.08,6.8.03,1.45-.64,1.85-2.33,1.72-3.55-.26-7.1-.24-10.65.04-1.13.09-2.37.19-3.41-.13-1.37-.42-2.66-.16-3.99-.15-2.19.02-4.38,0-6.57-.14-1.85-.11-3.68-.12-5.53,0-2.01.13-2.53-.37-2.52-2.28.01-1.87.52-3.84.05-5.59-.48-1.8.34-3.4.06-5.12-.28-1.71-.11-3.48-.11-5.23,0-3.37.01-6.74.02-10.11,0-1.32.33-1.72,1.63-1.32,1.16.36,1.91-.46,2.9-.41,1.47.08,2.95.1,4.42.13,1.07.03,2.13.08,3.2.06,4.08-.06,8.17-.14,12.25-.2,3.33-.05,6.67-.07,10.31-.1Z"/>
    <path d="M57.48,135.72c0-2.9-.01-5.74,0-8.58,0-1.45.14-2.87-.1-4.36-.27-1.71.21-3.5.22-5.26.01-3.09-.1-6.18-.12-9.26,0-1.13.1-2.26.18-3.39.07-1.01.87-1.2,1.72-1.23,2.15-.07,4.3-.1,6.45-.15,1.65-.04,3.31-.08,4.96-.13.14,0 .27-.05.4-.04 4.03.47,8.04-.2,12.07-.06,1.46.05,2.92-.15,4.39-.19.39,0 .78.17,1.26.28.06.44.16.86.17,1.28.08,2.76.22,5.52.2,8.28-.02,2.68-.27,5.36-.31,8.04-.03,1.55.19,3.11.22,4.67.03,1.72,0,3.45-.04,5.18-.03,1.6-.11,3.21-.17,4.92h-31.48Z"/>
    <path d="M57.59,145.2c10.44-.3,20.86-.21,31.55-.36,0,1.04-.02,1.83,0,2.61.08,2.84.22,5.69.23,8.53,0,1.66-.19,3.31-.26,4.97-.03.9,0,1.81.04,2.71.08,1.75.24,3.5.26,5.26.02,2.03-.1,4.06-.11,6.09,0,.93-.43,1.23-1.38,1.07-1.36-.23-2.73-.41-4.11-.62-.08.17-.17.39-.28.64-.19-.03-.4-.05-.58-.1-.37-.1-.9-.43-1.09-.31-1.27.84-2.45.15-3.66-.05-.31-.05-.68-.15-.95-.04-1.45.57-2.91.21-4.38.19-2.07-.03-4.14.03-6.21.07-.25,0-.5.15-.76.15-1.16.02-2.17-.72-3.4-.5-1.11.19-2.27.15-3.4.28-.99.12-1.39-.32-1.43-1.15-.07-1.68-.14-3.36-.15-5.04,0-2.13.26-4.28,0-6.37-.19-1.57.06-3.09-.03-4.61-.08-1.39-.11-2.74,0-4.12.11-1.42.12-2.86.09-4.28-.02-1.29-.17-2.59-.22-3.88-.01-.29.11-.6.22-1.13Z"/>
    <path d="M57.69,93.42c0-1.58-.23-3.05.04-4.43.7-3.56-.02-7.12.27-10.67.28-3.35.37-6.7.49-10.06.05-1.42-.04-2.84-.03-4.26,0-.36.14-.73.2-1.05,2.26-.14,4.44-.27,6.62-.4.54-.03,1.11-.19,1.61-.07,1.22.28,2.42.25,3.56-.14,1.67-.58,3.28.21,4.94.05,1.48-.15,2.98,0,4.48-.06,2.64-.1,5.27-.26,7.97-.4.85,1.04.78,2.25.8,3.42.06,2.96.23,5.92.11,8.86-.12,2.96.56,5.9-.03,8.88-.3,1.48.11,3.08.19,4.63.11,2,.38,4.01-.42,6.1-1.53.07-3.07.21-4.6.2-2.83-.02-5.66-.19-8.49-.19-3.36,0-6.72.13-10.08.18-2.07.03-4.13.05-6.2,0-.43-.01-.85-.33-1.45-.58Z"/>
    <path d="M58.68,53.24c0-3.31-.02-6.27,0-9.23.01-1.53-.2-3.14.22-4.57.34-1.14-.76-2.08,0-3.2.67-.98-.09-2.27.13-3.27.22-.99-.13-1.84-.02-2.75.13-.98.12-1.98.31-2.94.24-1.23-.28-2.35-.4-3.52-.21-1.94.36-2.55,2.44-2.6,2.9-.07,5.81-.28,8.71-.27,4.42.01,8.83.17,13.25.25.53,0,1.06-.16,1.6-.21,1.41-.13,1.79.34,2.02,1.65.43,2.41.07,4.86.4,7.23.21,1.51-.15,3,.23,4.45.66,2.49-.05,4.97,0,7.45,0,.34.16.67.26,1,.08.27.3.55.27.81-.29,2.27-.33,4.54,0,6.82.11.77-.13,1.59-.23,2.67-1.19.5-2.79.44-4.34.45-3.12.03-6.23-.14-9.35-.14-2.32,0-4.63.02-6.96-.05-2.36-.08-4.8-.48-7.18.12-.46.12-1.01-.09-1.4-.14Z"/>
  </symbol>
</svg>
