<svg xmlns="http://www.w3.org/2000/svg">
  <symbol id="icon" viewBox="0 0 989.31 818.93">
    <path d="M497.46,758.81c.75-62.05,1.48-123.16,2.23-184.77,8.68-.45,16.56-.56,24.39-1.32,18.05-1.76,36.22-3,54.08-5.97,30.33-5.04,59.79-13.78,88.13-25.69,23.77-9.99,46.2-22.71,67.12-37.9,5-3.63,9.65-7.74,14.96-12.04,1.78,2.37,3.35,3.96,4.35,5.85,7.83,14.85,13.47,30.34,17.13,46.91,3.39,15.35,5.54,30.66,5.94,46.24.59,23.42-2.16,46.39-9.83,68.74-3.41,9.93-7.89,19.12-13.79,27.69-1.4,2.04-3.19,4.13-5.29,5.33-16.08,9.16-31.81,19.15-48.59,26.83-16.7,7.63-34.22,13.82-51.89,18.91-21.26,6.13-42.88,11.37-64.66,15.23-19,3.37-38.42,4.39-57.67,6.21-7.03.66-14.13.71-21.2.87-1.59.04-3.19-.63-5.4-1.11Z"/>
    <path d="M229.96,480.86c69.66,60.17,150.84,85.72,240.31,92.17.46,3.27,1.32,6.5,1.28,9.72-.14,10.41-.81,20.81-.9,31.22-.14,17.51.25,35.03-.03,52.54-.32,19.75-1.23,39.49-1.67,59.23-.24,10.69-.04,21.39-.04,32.79-4.67,0-8.85.35-12.97-.06-25.07-2.47-49.83-6.64-74.43-12.3-16.89-3.88-33.25-9.22-49.56-14.69-14.71-4.94-29.12-10.99-43.17-17.62-15.31-7.22-30.25-15.28-44.97-23.66-15.49-8.82-24.48-23.25-31.33-39.2-11.23-26.18-14.42-53.59-12.01-81.74,1.15-13.45,3.08-26.81,8.38-39.46,2.04-4.88,2.98-10.23,5.13-15.05,4.98-11.17,10.39-22.14,15.98-33.92Z"/>
    <path d="M796.61,653.13c2.33-12.96,5.45-25.32,6.59-37.86,1.6-17.54-.6-34.9-4.04-52.3-3.86-19.49-9.48-38.38-15.92-57.04-3.21-9.29-7.49-18.33-12.33-26.89-2.48-4.39-2.21-7.15.76-10.51,4.13-4.68,8.38-9.28,12.21-14.21,18.69-24.08,31.86-50.59,37.92-80.81,3.64-18.16,3.28-36.14,1.86-54.25-.99-12.65-2.39-25.34-4.83-37.77-1.68-8.54-5.47-16.67-8.3-24.99-1.33-3.9-2.6-7.82-4.43-13.34,5.21,1.21,8.7,1.9,12.12,2.83,18.48,5.03,34.81,14,50.45,25.11,14.66,10.42,23.8,24.9,33.29,39.23,3.32,5.02,5.14,11.4,6.31,17.42,2.35,12.07,4.88,24.12,6.78,36.31,2.37,15.23,3.57,30.29,2.71,45.48-.96,16.85-2.37,33.75-4.96,50.41-1.71,11.02-3.82,22.19-8.37,32.63-1.68,3.85-2.88,7.95-3.94,12.02-3.6,13.85-10.6,26.13-16.78,38.89-5.79,11.96-12.3,23.41-19.35,34.55-4.57,7.23-10.57,13.55-15.84,20.35-2.05,2.65-3.79,5.54-5.79,8.23-11.8,15.89-26.61,28.96-40.47,42.92-1.52,1.53-3.74,2.38-5.66,3.57Z"/>
    <path d="M180.31,249.54c-6.11,16.81-12.33,32.25-17.29,48.08-3.81,12.15-5.69,24.84-4.05,37.72,1.33,10.42,1.89,21.06,4.54,31.15,6.26,23.84,13.55,47.37,28.35,67.74,6.8,9.36,13.11,19.07,20.34,29.64-1.66,3.04-3.99,6.87-5.91,10.89-3.89,8.13-7.77,16.28-11.26,24.59-3.49,8.3-6.78,16.71-9.62,25.25-2.58,7.75-4.79,15.67-6.49,23.66-1.58,7.42-2.57,15-3.25,22.56-.81,8.99-2.24,18.17-1.22,27.01,1.69,14.73,1.43,29.96,8.03,43.84.44.93.42,2.08-.49,3.92-7.51-7.15-15.12-14.18-22.5-21.46-17.17-16.95-32.61-35.4-46.34-55.23-9.53-13.77-17.89-28.21-22.94-44.32-4.06-12.95-8.88-25.75-11.7-38.98-4.3-20.19-7.43-40.62-7.22-61.45.18-17.62.59-35.26,4.09-52.5,3.26-16.04,7.89-31.84,12.56-47.56,2.49-8.4,6.29-16.43,9.58-24.59,4.74-11.77,13.79-19.96,23.34-27.66,10.52-8.48,22.5-14.1,35.59-17.24,7.86-1.89,15.81-3.37,23.86-5.06Z"/>
    <path d="M501.54,427.42c13.24-1.56,25.61-2.93,37.94-4.52,4.75-.61,9.41-2.39,14.14-2.54,14.83-.46,27.17-8.38,40.51-13.17,17.65-6.34,35.12-6.07,52.59-.6,29.85,9.34,55.05,25.93,75.39,49.81,3.65,4.29,7.66,8.28,12.06,12.99-5.03,3.88-9.47,7.71-14.3,10.98-15.96,10.78-32.44,20.57-50.64,27.25-11.64,4.27-22.83,9.8-34.58,13.71-13.63,4.54-27.47,8.73-41.52,11.62-24.5,5.05-49.35,8.09-74.36,9.47-5.53.3-11.09.04-17.02.04-.49-1.09-1.58-2.37-1.55-3.62.24-11.27.81-22.54,1.03-33.81.25-12.94.26-25.89.31-38.83.05-12.84.01-25.69.01-38.78Z"/>
    <path d="M471.41,426.14v116.1c-12.82-1.42-25.63-2.73-38.42-4.29-17.15-2.09-33.91-6.09-50.5-10.85-19.49-5.59-38.85-11.56-57.02-20.75-11.58-5.85-23.58-11.09-34.5-18-13.33-8.44-25.8-18.26-38.5-27.69-4.27-3.17-4.08-4.03-.54-8.89,8.39-11.48,19.23-20.36,30.3-29.1,10.27-8.09,21.29-14.95,33.48-19.28,13.77-4.89,27.82-7.97,42.99-6.29,18.66,2.07,35.41,9.81,53.03,14.92,11.95,3.47,24.01,6.63,36.11,9.55,7.66,1.85,15.48,3.01,23.57,4.55Z"/>
    <path d="M754.2,451.92c-32.72-42.59-73.03-67.93-126.51-68.88,5.53-6.66,11.27-12.58,15.77-19.32,3.54-5.3,6-11.46,8.14-17.51,6.5-18.32,12.36-36.78,23.91-52.94,14.06-19.66,31.29-34.99,53.91-43.94,10.83-4.29,22.17-6.21,33.66-7.54,2.81-.32,5.61-.68,9.22-1.13,9.38,11.68,17.19,24.43,21.38,39.56,3.04,10.95,5.8,21.84,6.86,33.17,2.63,28.31-1.67,55.73-10.39,82.6-.18,14.13-9.64,23.86-16.94,34.38-5.21,7.51-12.12,13.84-19.02,21.54Z"/>
    <path d="M348.38,374.87c-49.67,2.05-85.76,28.35-117.85,64.12-4.41-5.72-8.75-11.11-12.81-16.69-3.67-5.04-7.16-10.21-10.49-15.48-1.64-2.6-3.17-5.42-3.99-8.36-3.84-13.86-8.21-27.63-10.89-41.72-4.8-25.19-2.36-49.77,7.93-73.64,4.31-10,8.55-19.87,14.19-29.22,2.23-3.7,4.4-4.19,8.14-3.92,12.3.86,23.99,4.31,35.25,8.84,20.85,8.41,36.03,23.65,49.22,41.55,13.94,18.91,23.26,40.21,33.8,60.91,2.26,4.43,4.8,8.72,7.51,13.61Z"/>
    <path d="M624.14,145.23c43.31,11.4,102.41,43.71,128.84,74.4-23.9,4.83-45.78,13.29-64.82,28.08-19.15,14.87-33.17,33.69-42.06,57.01-6.17-7.1-11.11-13.24-16.52-18.91-11.34-11.88-25.63-19.47-40.21-26.46-6.24-3-8.28-5.52-7.17-12.34,3.67-22.58,8.41-44.94,18.76-65.55,6.46-12.88,13.78-25.35,23.18-36.23Z"/>
    <path d="M396.81,255.12c-22.92,11.74-45.99,24.93-57.6,53.05-21.42-46.42-58.86-68.65-105.51-78.52.63-2.05.64-3.37,1.3-4.04,15.89-16.13,32.72-31.35,52.24-42.84,16.97-10,34.92-18.34,52.53-27.22,4.47-2.26,9.21-4.15,14.03-5.47,1.48-.41,4.18,1.17,5.37,2.62,6.92,8.45,13.62,17.12,18.27,27.08,4.26,9.13,8.77,18.23,11.89,27.77,3.28,10,5.42,20.43,7.3,30.8.93,5.12.16,10.55.16,16.79Z"/>
    <path d="M648.69,121.1c6.45-6,12.9-9.83,19.68-11.93,10.24-3.16,20.94-4.88,31.52-6.81,2.66-.49,5.87-.13,8.33.95,7.01,3.08,13.91,6.48,20.6,10.22,10.59,5.92,21.23,11.79,31.34,18.47,8.19,5.41,16.72,10.26,24.02,17.2,8.56,8.14,18.81,14.48,27.65,22.36,8.15,7.27,15.47,15.49,23.03,23.4,5.28,5.53,10.83,10.89,15.45,16.95,9.02,11.83,17.46,24.1,25.46,36.86-11.39-9.28-24.74-14.74-37.68-20.39-10.21-4.46-21.7-5.99-32.62-8.81-.27-.07-.57,0-.85-.05-14.86-2.2-15.34-1.84-23.99-13.26-7.73-10.21-16.8-18.85-26.37-27.16-13.67-11.88-28.69-21.5-44.44-30.53-12.74-7.3-26.79-11.66-39.12-19.62-3.37-2.18-7.92-2.47-11.87-3.82-3.09-1.06-6.08-2.4-10.13-4.03Z"/>
    <path d="M602.28,139.43c-24.38,32.45-38.06,68.36-41.61,108.25-20.07-3.5-39.28-6.85-59.22-10.33.54-36.91,1.08-73.57,1.61-110.1,11.98-3.3,77.55,4.26,99.22,12.18Z"/>
    <path d="M480.19,237.68c-19.23,2.59-38.15,5.14-58,7.81-4.66-37.22-16.5-72.43-39.63-103.39,32.37-9.46,64.37-13.86,97.64-14.68v110.26Z"/>
    <path d="M131.13,240.25c4.37-5.73,8.69-11.5,13.12-17.19,12.93-16.63,27.46-31.85,43.05-45.92,12.94-11.68,26.36-22.88,41.27-32.18,9.79-6.1,18.74-13.56,28.59-19.54,8.42-5.11,17.57-9.02,26.44-13.38,3.7-1.82,7.39-1.67,11.56-.87,12.73,2.43,24.62,6.6,35.23,14.14,1.55,1.1,2.92,2.44,4.86,4.07-1.53,1.27-2.42,2.39-3.58,2.89-6.49,2.83-13.06,5.47-19.57,8.25-38.05,16.25-71.36,39.39-100.08,69.14-3.74,3.88-7.22,8.06-10.41,12.4-2.27,3.08-4.93,4.05-8.63,4.39-8.98.82-18.13,1.39-26.81,3.59-11.41,2.9-22.44,7.27-33.63,11-.47-.27-.94-.54-1.41-.8Z"/>
    <path d="M503.97,102.46v-41.52c4.52-3.57,10.65-1.04,16.24-1.46,6.14-.46,12.4.52,18.6.94,13.77.92,27.4,2.61,41.05,4.87,13.1,2.17,26.13,4.47,39.15,7.12,12.94,2.63,24.85,7.66,37.02,12.22,4.44,1.66,8.84,3.42,14.58,5.64-16.22,7.51-31.71,13.29-44.15,24.91-39.75-9.37-80.23-13.16-122.49-12.72Z"/>
    <path d="M326.7,92.49c49.19-18.71,99.96-29.93,153.22-32.13v43.07c-3.78.42-6.8.99-9.84,1.07-32.8.89-64.99,5.87-96.62,14.46-6.03,1.64-10.43.85-15.24-3.6-8.5-7.87-17.86-14.81-28.89-19.02-.96-.37-1.82-.98-2.73-1.48.03-.79.07-1.58.1-2.37Z"/>
    <path d="M479.59,260.71v38.41c-22.38.94-43.84,4.48-65.65,10.35,0-2.3-.25-3.69.04-4.95,2.35-10.16,4.96-20.26,7.16-30.45,1.34-6.24,1.61-6.98,7.85-7.85,13.74-1.91,27.5-3.75,41.26-5.47,2.79-.35,5.66-.05,9.34-.05Z"/>
    <path d="M501.71,298.55v-36.82c3.77-.13,7.15-.82,10.3-.26,13.6,2.44,27.16,5.13,40.69,7.95,7.55,1.57,7.82,2.44,9.25,9.95,2.04,10.74,4.48,21.41,6.97,33.11-21.61-6.97-43.69-11.94-67.21-13.93Z"/>
    <path d="M584.03,280.88c.22-.1.5-.35.65-.29,13.76,5.61,26.59,12.78,36.38,24.18,4.54,5.28,9.26,11.03,11.65,17.41,5.9,15.73.48,29.58-9.71,43.03-1.54-3.75-2.94-6.53-3.83-9.47-3.06-10.13-11.02-17.01-16.68-25.4-8.29-12.32-18.89-37.97-18.46-49.45Z"/>
    <path d="M396.59,277.48c-2.94,17.6-6.42,33.49-15.39,47.68-4.53,7.17-9.09,14.33-13.41,21.63-1.41,2.38-2.09,5.17-3.29,8.22-8.59-4.64-10.63-13.55-12.21-21.87-3.64-19.12,6.49-32.55,20.52-43.54,5.33-4.17,11.5-7.3,17.4-10.7,1.37-.79,3.21-.75,6.38-1.43Z"/>
  </symbol>
</svg>
